<?xml version="1.0" standalone="no"?>
<!DOCTYPE svg PUBLIC "-//W3C//DTD SVG 20010904//EN"
 "http://www.w3.org/TR/2001/REC-SVG-20010904/DTD/svg10.dtd">
<svg version="1.0" xmlns="http://www.w3.org/2000/svg"
 width="700.000000pt" height="700.000000pt" viewBox="0 0 700.000000 700.000000"
 preserveAspectRatio="xMidYMid meet">
<metadata>
Created by potrace 1.14, written by Peter Selinger 2001-2017
</metadata>
<g transform="translate(0.000000,700.000000) scale(0.100000,-0.100000)"
fill="#000000" stroke="none">
<path d="M2628 5315 c-2 -1 -25 -5 -53 -8 -124 -14 -294 -82 -385 -154 -161
-128 -258 -296 -306 -528 -25 -120 -22 -399 6 -494 5 -17 9 -34 9 -36 0 -22
39 -133 68 -190 53 -107 121 -192 213 -266 199 -161 527 -216 826 -138 78 20
278 112 292 133 7 12 10 246 3 246 -2 0 -27 -18 -55 -39 -84 -65 -160 -106
-248 -135 -199 -67 -434 -50 -590 41 -131 76 -238 240 -264 403 -3 19 -8 39
-12 44 -3 5 -6 77 -8 160 -4 243 30 393 119 525 84 123 207 200 372 230 52 10
249 7 299 -4 116 -25 260 -97 346 -174 19 -17 37 -31 40 -31 3 0 5 55 5 123 1
98 -2 124 -15 134 -63 51 -257 127 -375 148 -39 7 -281 16 -287 10z"/>
<path d="M3680 4393 l0 -893 118 0 117 0 0 740 c0 407 2 740 5 740 3 0 10 -10
16 -23 13 -28 113 -216 339 -642 27 -49 68 -128 93 -175 25 -47 72 -137 106
-200 34 -63 99 -188 146 -277 l85 -163 163 0 c89 0 162 3 163 8 1 9 1 1663 0
1728 l-1 51 -115 0 c-98 0 -115 -3 -116 -16 0 -9 -1 -344 -1 -744 l-1 -728
-24 43 c-14 24 -52 95 -85 158 -33 63 -75 141 -93 175 -17 33 -56 105 -85 160
-29 55 -71 134 -92 175 -22 41 -62 116 -88 165 -26 50 -69 131 -96 180 -80
150 -120 226 -169 323 -26 51 -53 96 -59 100 -6 4 -82 7 -168 8 l-158 0 0
-893z"/>
</g>
</svg>
